<?xml version="1.0" encoding="UTF-8"?>
<svg version="1.1" viewBox="0 0 1600 900" width="1600" height="900" xmlns="http://www.w3.org/2000/svg">
<path transform="translate(0)" d="m0 0h1600v900h-1600z" fill="#F5F5F5"/>
<path transform="translate(673,173)" d="m0 0h16l12 2 12 4 16 7 16 9 17 12 15 13 17 17 9 11 13 17 11 17 5 9-2 16v19l3 14 4 9 7 12 12 12 13 8 10 4 7 1h12l9-3 5-3h2l7-14 1-13-1-19h-2l-8 11-7 8-10 3-8-1-4-2-1-7 6-10 5-11v-8l-4-10-9-9-11-7-10-4-1-4 4-7 7-7 8-5 8-1 9 2h34l12 3 12 5 19 10 13 8 7 6 4 6v7l-4-2-19-4 6 9 10 10 4 8v5l-9-6 2 12 6 9 6 8v4l-4-2-8-3 7 11 2 7v7l-4-5-8-5-4-1-4 16 1 8 2 2 10-3 8-4 7-6 4-6 3-9v-14l-4-14 1-4 14-12 18-13 20-12 23-12 19-8 19-7 20-6 25-6 18-3h7l-4 3-14 7-10 8-6 7-3 7v10l5 11-19 5-9 4-12 7-9 9-8 14-3 12-1 16 2 17-17-2-16 1-17 5-16 8-12 8-13 11-7 7-7 10-4 8-1 9 7 15 2 11-3 7-5 5-7 5-10 25-5 13-3 7-1 12h-7l-2 5-8 12-13 16-9 9-1 16-6 11-9 10-9 8-9 7-13 12-6 7-3 6-6 26-5 10-9 9-5 2 7-14 3-12-8 16-3 5-1-3 1-7 1-24-2 6-2 12-2-4-1-12 3-12 6-9 9-9 11-6-5-5-6 2-16 8-22 10-27 9-25 6-17 3-25 3h-48l-39-5-22-5-15-4-30-10-28-12-22-12-16-10-13-9-13-10-11-10-8-7-9-9-9-11-11-15-9-17-2-7-1 1v22l-1 1h-20v-74h18l1-6 6-11 7-9 10-9 11-7 12-7 36-16 16-8 16-9 13-10 9-9 8-13 3-7h1l1 10-2 12-5 12-7 10-11 11-11 8-17 11-26 15-16 10-10 8-5 5-5 6-1 3h35l5 5v26l-15-1-5-1v-9h-24l7 18 9 16 10 13 11 12 11 10 13 10 14 9 16 9 21 10 17 7 26 8 21 5 14 3 31 4 34 1 27-1 31-5 17-5 20-8 10-5h3l1-10-2-8-6-9-10-6-6-2h-22l-6 1 1-4 5-3 2-1-3-1h-15l3-5 3-2h12l5 1h13l1-5-2-2-77-1-5-3-2-4v-60l2-4 5-3h80l5 4 1 2v62l-1 3 3 1 9 15 8 7 8 3 9-1 5-4 3-17-10-1v-92h19l1 1v44l20-1 21-21 2-9 2-32-10 5-2 3-2 8-3 2h-4v-5l-6 1-1 1v5l4 2-3 2 6 1 7-1-3 6-9 3 8 2h13l-2 4-6 4-4 1h-12l-9-3-6-5 2-7v-18l10-4 12-10 9-7h2l-6-9-15-15-16-11-14-7-17-5-10-2h-31v-21l-4-15-6-14-10-13-10-8-11-6-14-4-10-1h-17l2-13v-21l-4-16-8-15-11-12-8-7-13-8-16-8-18-7-11-4-26-7-12-3-1-2 20-5 22-4 38-4z" fill="#E01E26"/>
<path transform="translate(702,487)" d="m0 0h80l5 4 1 2v62l-5 5-2 1h-79l-5-3-2-4v-60l2-4z" fill="#231E20"/>
<path transform="translate(822,469)" d="m0 0h19l1 1v44l20-1 21-21 6-5h25l-2 4-32 32 2 4 32 32v2h-24l-8-7-9-9-8-7-3-3-21-1v27h-19z" fill="#261E20"/>
<path transform="translate(514,487)" d="m0 0h20v54h53v-54h20v69l-6 5h-80l-5-3-2-4z" fill="#251E20"/>
<path transform="translate(268,487)" d="m0 0h19v54h54v-54h20v66l-3 5-4 3h-80l-5-4-1-2z" fill="#251E20"/>
<path transform="translate(560,366)" d="m0 0h1l1 10-2 12-5 12-7 10-11 11-11 8-17 11-26 15-16 10-10 8-5 5-5 6-1 3h-34l1-6 6-11 7-9 10-9 11-7 12-7 36-16 16-8 16-9 13-10 9-9 8-13z" fill="#E11E26"/>
<path transform="translate(394,487)" d="m0 0h87l5 5v26l-15-1-5-1v-10h-52l1 32v22l-1 1h-20z" fill="#291E20"/>
<path transform="translate(641,469)" d="m0 0h20v92h-20z" fill="#241E20"/>
<path transform="translate(715,507)" d="m0 0h53v34h-53z" fill="#F6F6F6"/>
<path transform="translate(885,451)" d="m0 0h2v20l-2 19-7 8-16 16h-20v-29l7 6 9 3h12l8-3 4-5-2 1h-11l-9-3v-1l9-2 3-5-10 1-3-2 3-2-4-2v-5l4-3 5 1-1 5 6-2 3-10 5-4z" fill="#F6F6F6"/>
<path transform="translate(951,496)" d="m0 0 11 1 1 32-1 32h-18l-1-1-1-43 1-20z" fill="#221F20"/>
<path transform="translate(897,291)" d="m0 0 6 5 1 2 3-1 1 2 8 1 12 3-4 13-3 9-3 4-9-1-3-1 2 8h-6l1 4-5-2-1-1 1 8-5-2-1 4h-2v-2l-3-1-1-5 6-13h2v-14l-3-6-10-9 1-4 3 2 2-2 2 4 2-3 4 8z" fill="#2B1E20"/>
<path transform="translate(972,308)" d="m0 0 15 15 4 8v5l-9-6 2 12 6 9 6 8v4l-4-2-8-3 7 11 2 7v7l-4-5-8-5-2-1v-2h-2v-36l-5-23z" fill="#2F1F20"/>
<path transform="translate(779,454)" d="m0 0h3l6 11v2l-28 16-4-1-6-11 16-9z" fill="#2E1E20"/>
<path transform="translate(842,534)" d="m0 0h20l10 10-2 6h-17l-11 2z" fill="#F6F6F6"/>
<path transform="translate(943,470)" d="m0 0h19v19h-19z" fill="#221F20"/>
<path transform="translate(906,327)" d="m0 0 11 2-2 4-9 10-9 6-7 1-4-3v-5l6 3 1-3 5 2-2-5 1-4 6 4-2-5h6z" fill="#F6F6F6"/>
<path transform="translate(813,593)" d="m0 0 12 5 7 2-3 3-17 11-1-3 2-6z" fill="#F6F6F6"/>
<path transform="translate(878,287)" d="m0 0h13l7 3-2 13-4-5-1-3-2 2-3-3h-3l-1-1-2 2-6-4z" fill="#F6F6F6"/>
<path transform="translate(916,271)" d="m0 0h14l5 1-3 5-7 1-13-4 1-2z" fill="#221F20"/>
<path transform="translate(898,291)" d="m0 0 4 1 9 5-1 3-6-2-6-5z" fill="#F6F6F6"/>
</svg>
